<mxfile host="Electron" agent="Mozilla/5.0 (Windows NT 10.0; Win64; x64) AppleWebKit/537.36 (KHTML, like Gecko) draw.io/24.7.17 Chrome/128.0.6613.36 Electron/32.0.1 Safari/537.36" version="24.7.17">
  <diagram name="Страница — 1" id="YhNN-B2c41vuA7pZLgMu">
    <mxGraphModel dx="1418" dy="828" grid="1" gridSize="10" guides="1" tooltips="1" connect="1" arrows="1" fold="1" page="1" pageScale="1" pageWidth="1169" pageHeight="827" math="0" shadow="0">
      <root>
        <mxCell id="0" />
        <mxCell id="1" parent="0" />
        <mxCell id="h4UDU3MdKV_MsNox_-0J-1" value="" style="rounded=1;whiteSpace=wrap;html=1;" parent="1" vertex="1">
          <mxGeometry x="80" y="200" width="190" height="320" as="geometry" />
        </mxCell>
        <mxCell id="h4UDU3MdKV_MsNox_-0J-2" value="" style="ellipse;whiteSpace=wrap;html=1;aspect=fixed;" parent="1" vertex="1">
          <mxGeometry x="160" y="480" width="30" height="30" as="geometry" />
        </mxCell>
        <mxCell id="h4UDU3MdKV_MsNox_-0J-3" value="" style="rounded=0;whiteSpace=wrap;html=1;" parent="1" vertex="1">
          <mxGeometry x="92.5" y="230" width="165" height="240" as="geometry" />
        </mxCell>
        <mxCell id="h4UDU3MdKV_MsNox_-0J-4" value="" style="rounded=1;whiteSpace=wrap;html=1;" parent="1" vertex="1">
          <mxGeometry x="390" y="200" width="260" height="320" as="geometry" />
        </mxCell>
        <mxCell id="h4UDU3MdKV_MsNox_-0J-5" value="" style="shape=cylinder3;whiteSpace=wrap;html=1;boundedLbl=1;backgroundOutline=1;size=15;" parent="1" vertex="1">
          <mxGeometry x="770" y="200" width="210" height="320" as="geometry" />
        </mxCell>
        <mxCell id="h4UDU3MdKV_MsNox_-0J-6" value="" style="endArrow=classic;startArrow=classic;html=1;rounded=0;entryX=0;entryY=0.5;entryDx=0;entryDy=0;exitX=1;exitY=0.5;exitDx=0;exitDy=0;" parent="1" edge="1">
          <mxGeometry width="50" height="50" relative="1" as="geometry">
            <mxPoint x="270" y="359.5" as="sourcePoint" />
            <mxPoint x="390" y="359.5" as="targetPoint" />
          </mxGeometry>
        </mxCell>
        <mxCell id="h4UDU3MdKV_MsNox_-0J-8" value="&lt;font style=&quot;font-size: 15px;&quot;&gt;&lt;b&gt;1&lt;/b&gt;&lt;/font&gt;" style="text;strokeColor=none;align=center;fillColor=none;html=1;verticalAlign=middle;whiteSpace=wrap;rounded=0;labelBorderColor=#FFFFFF;labelBackgroundColor=#FFFFFF;" parent="1" vertex="1">
          <mxGeometry x="310" y="340" width="40" height="40" as="geometry" />
        </mxCell>
        <mxCell id="h4UDU3MdKV_MsNox_-0J-13" value="" style="endArrow=classic;startArrow=classic;html=1;rounded=0;entryX=0;entryY=0.5;entryDx=0;entryDy=0;exitX=1;exitY=0.5;exitDx=0;exitDy=0;" parent="1" edge="1">
          <mxGeometry width="50" height="50" relative="1" as="geometry">
            <mxPoint x="650" y="359.5" as="sourcePoint" />
            <mxPoint x="770" y="359.5" as="targetPoint" />
          </mxGeometry>
        </mxCell>
        <mxCell id="h4UDU3MdKV_MsNox_-0J-14" value="&lt;font style=&quot;font-size: 15px;&quot;&gt;&lt;b&gt;2&lt;/b&gt;&lt;/font&gt;" style="text;strokeColor=none;align=center;fillColor=none;html=1;verticalAlign=middle;whiteSpace=wrap;rounded=0;labelBorderColor=#FFFFFF;labelBackgroundColor=#FFFFFF;" parent="1" vertex="1">
          <mxGeometry x="690" y="340" width="40" height="40" as="geometry" />
        </mxCell>
        <mxCell id="h4UDU3MdKV_MsNox_-0J-19" value="&lt;font style=&quot;font-size: 15px;&quot;&gt;&lt;b&gt;A&lt;/b&gt;&lt;/font&gt;" style="text;strokeColor=none;align=center;fillColor=none;html=1;verticalAlign=middle;whiteSpace=wrap;rounded=0;" parent="1" vertex="1">
          <mxGeometry x="152.5" y="150" width="45" height="30" as="geometry" />
        </mxCell>
        <mxCell id="h4UDU3MdKV_MsNox_-0J-20" value="&lt;span style=&quot;font-size: 15px;&quot;&gt;&lt;b&gt;B&lt;/b&gt;&lt;/span&gt;" style="text;strokeColor=none;align=center;fillColor=none;html=1;verticalAlign=middle;whiteSpace=wrap;rounded=0;" parent="1" vertex="1">
          <mxGeometry x="497.5" y="150" width="45" height="30" as="geometry" />
        </mxCell>
        <mxCell id="h4UDU3MdKV_MsNox_-0J-21" value="&lt;font style=&quot;font-size: 15px;&quot;&gt;&lt;b&gt;C&lt;/b&gt;&lt;/font&gt;" style="text;strokeColor=none;align=center;fillColor=none;html=1;verticalAlign=middle;whiteSpace=wrap;rounded=0;" parent="1" vertex="1">
          <mxGeometry x="852.5" y="150" width="45" height="30" as="geometry" />
        </mxCell>
        <mxCell id="h4UDU3MdKV_MsNox_-0J-22" value="&lt;div style=&quot;font-size: 16px;&quot;&gt;&lt;span style=&quot;background-color: initial;&quot;&gt;&lt;font style=&quot;font-size: 16px;&quot;&gt;&lt;b&gt;A&lt;/b&gt; - фронтенд, мобильное приложение&lt;/font&gt;&lt;/span&gt;&lt;/div&gt;&lt;div style=&quot;font-size: 16px;&quot;&gt;&lt;font style=&quot;font-size: 16px;&quot;&gt;&lt;b&gt;B&lt;/b&gt; - бэкенд / сервер&amp;nbsp;&lt;/font&gt;&lt;/div&gt;&lt;div style=&quot;font-size: 16px;&quot;&gt;&lt;font style=&quot;font-size: 16px;&quot;&gt;&lt;b&gt;C &lt;/b&gt;- база данных, PG&lt;/font&gt;&lt;/div&gt;" style="text;strokeColor=none;align=left;fillColor=none;html=1;verticalAlign=middle;whiteSpace=wrap;rounded=0;" parent="1" vertex="1">
          <mxGeometry x="80" y="580" width="297.5" height="90" as="geometry" />
        </mxCell>
        <mxCell id="h4UDU3MdKV_MsNox_-0J-23" value="&lt;font style=&quot;font-size: 16px;&quot;&gt;&lt;b&gt;1 &lt;/b&gt;- протокол взаимодествия HTTPS. Передача запросов клиента (фронтенд) о наличии определенного ингридиента в косметике на сервер (бэкенд) и ответ сервера клиенту&lt;/font&gt;&lt;div&gt;&lt;span style=&quot;font-size: 16px;&quot;&gt;&lt;br&gt;&lt;/span&gt;&lt;div style=&quot;font-size: 16px;&quot;&gt;&lt;font style=&quot;font-size: 16px;&quot;&gt;&lt;b&gt;2 &lt;/b&gt;- получение/сохранения данных из/в БД о наличии ингридиента в составе косметики&lt;/font&gt;&lt;/div&gt;&lt;/div&gt;" style="text;strokeColor=none;align=left;fillColor=none;html=1;verticalAlign=middle;whiteSpace=wrap;rounded=0;" parent="1" vertex="1">
          <mxGeometry x="80" y="660" width="420" height="150" as="geometry" />
        </mxCell>
        <mxCell id="jIGBAZdyDKZ7Kn-YVD62-1" value="Получение/отображение данных о наличии опреденного ингридиента в составе" style="text;strokeColor=none;align=center;fillColor=none;html=1;verticalAlign=middle;whiteSpace=wrap;rounded=0;" vertex="1" parent="1">
          <mxGeometry x="103.75" y="290" width="142.5" height="100" as="geometry" />
        </mxCell>
        <mxCell id="jIGBAZdyDKZ7Kn-YVD62-2" value="Запрос/передача данных о наличии ингридиента в БД" style="text;strokeColor=none;align=center;fillColor=none;html=1;verticalAlign=middle;whiteSpace=wrap;rounded=0;" vertex="1" parent="1">
          <mxGeometry x="444.38" y="290" width="151.25" height="100" as="geometry" />
        </mxCell>
        <mxCell id="jIGBAZdyDKZ7Kn-YVD62-3" value="Хранение данных о косметических ингридиентах" style="text;strokeColor=none;align=center;fillColor=none;html=1;verticalAlign=middle;whiteSpace=wrap;rounded=0;" vertex="1" parent="1">
          <mxGeometry x="803.75" y="290" width="142.5" height="100" as="geometry" />
        </mxCell>
      </root>
    </mxGraphModel>
  </diagram>
</mxfile>
